<?xml version="1.0"?>
<svg width="2000" height="1000" xmlns="http://www.w3.org/2000/svg" xmlns:svg="http://www.w3.org/2000/svg">
 <g class="layer">
  <title>Layer 1</title>
  <rect fill="#f0f0f0" height="1000" stroke-dasharray="null" stroke-linecap="null" stroke-linejoin="null" stroke-width="null" width="2000"/>
  <g>
   <path d="m711.737688,444.525644c-1.074,4.216 2.427,4.217 2.427,4.217c-3.501,-0.001 57.517,0 57.517,0c4.751,-0.001 11.753,6.615 8.322,16.342l-50.491,130.485l80.528,0l49.02,-130.921c6.271,-15.906 6.152,-16.582 30.827,-16.627l226.337,0c7.748,0.003 8.484,-0.193 11.816,5.25l48.73,80.902c1.646,4.278 0.645,6.613 -4.689,6.613l-47.954,0l-20.324,54.783l179.638,-0.034c3.955,-0.08 6.008,-3.725 4.562,-7.997l-98.771,-172.423c-4.809,-7.061 -12.146,-11.064 -22.812,-10.657l-7.211,0.01l-427.414,-0.024l-6.252,0l-13.806,40.081z" fill="#fafafa" />
   <path d="m1039.130688,595.569644c0,0 6.7,0 14.254,-15.764c5.221,-10.896 18.541,-48.021 21.34,-59.029c5.166,-20.327 -22.118,-32.583 -22.118,-32.583c-2.262,-1.134 -2.934,-2.182 -2.525,-3.476l11.319,-29.334l49.332,0c3.615,0.397 4.426,0.799 7.555,4.216l14.748,22.646c1.014,1.67 0.811,2.607 0.025,4.647l-40.326,108.677l-53.604,0z" fill="#fafafa" />
   <path d="m1006.028688,595.546644c0,0 9.971,-0.171 11.592,-0.302c8.6,-0.691 13.664,-2.388 20.273,-10.354c7.186,-8.659 24.764,-54.644 25.539,-65.323c0.814,-11.199 -5.44,-17.623 -14.006,-22.513c-7.597,-4.337 -63.848,-26.919 -65.768,-27.764s-3.141,-2.637 -3.641,-5.512s0.722,-7.632 0.722,-7.632l-88.698,0.009c0,0 -4.611,15.534 -5.211,24.812c-0.467,7.227 3.827,10.056 6.451,11.919c3.439,2.443 86.344,37.998 89.127,39.686c3.812,2.312 7.126,10.004 -4.001,10.005l-137.434,0.001l-19.844,52.968l184.899,0z" fill="#fafafa" />
  </g>
 </g>
</svg>